<?xml version="1.0" encoding="UTF-8"?>
<svg width="168px" height="48px" viewBox="0 0 168 48" version="1.1" xmlns="http://www.w3.org/2000/svg" xmlns:xlink="http://www.w3.org/1999/xlink">
    <title>水印</title>
    <g id="页面-1" stroke="none" stroke-width="1" fill="none" fill-rule="evenodd">
        <g id="水印">
            <path d="M18.3570732,0 L168,0 L168,0 L168,48 L0,48 L0,18.3570732 C-1.24158753e-15,8.21874161 8.21874161,5.41509497e-15 18.3570732,0 Z" id="矩形" fill="#000000" opacity="0.25"></path>
            <g id="编组" transform="translate(66.752307, 10.748571)" fill="#FFFFFF" opacity="0.600000024">
                <g id="品牌/美间/美间-文字">
                    <path d="M12.8974845,15.9172889 L12.8974845,17.3036398 L23.3873054,17.3036398 L23.3873054,19.5059573 L12.9614225,19.5059573 C15.3391152,22.4767092 20.2643359,22.6252468 22.2424164,22.5579098 L22.2424164,22.5579098 L23.603096,22.4767092 L23.603096,24.7542857 L21.1934343,24.7542857 L20.9476798,24.7496416 C18.3590031,24.6857147 14.2769584,24.1102514 11.7006459,21.397336 C9.04322462,24.1977648 4.77936219,24.7206172 2.2098556,24.7542857 L2.2098556,24.7542857 L7.08739328e-15,24.7542857 L7.08739328e-15,22.4806702 L1.16087351,22.5618708 C3.13895402,22.6351493 8.06417467,22.4925532 10.4418674,19.5059573 L10.4418674,19.5059573 L0.181823562,19.5059573 L0.181823562,17.3036398 L10.6796367,17.3036398 L10.6796367,15.9172889 L12.8974845,15.9172889 Z M31.5433909,4.46999143 L31.5433909,24.4651325 L29.3315372,24.4651325 L29.3315372,4.46999143 L31.5433909,4.46999143 Z M30.4504514,0 C31.5014316,0.817947036 32.5004621,1.81413919 33.6773201,1.87949573 L33.6773201,1.87949573 L49.1762802,1.87949573 C49.7630624,1.87844397 50.326175,2.10875682 50.741468,2.51965701 C51.156761,2.93055721 51.3901319,3.48830389 51.3901319,4.06993017 L51.3901319,4.06993017 L51.3901319,22.3717427 C51.3901319,23.5227418 50.4493754,24.4561175 49.2881717,24.4572105 L49.2881717,24.4572105 L44.0132903,24.4572105 L44.0132903,22.2786591 L49.2881717,22.2786591 L49.2881717,4.06993017 L33.5594345,4.06993017 C31.2576681,3.98476861 29.4194519,1.97654029 29.0817796,1.71313362 L29.0817796,1.71313362 Z M43.511777,6.79708045 C44.8966678,6.79708045 46.0193437,7.90988975 46.0193437,9.28260958 L46.0193437,9.28260958 L46.0193437,17.525456 C46.0193437,18.8981758 44.8966678,20.0109851 43.511777,20.0109851 L43.511777,20.0109851 L37.301803,20.0109851 C35.9169122,20.0109851 34.7942363,18.8981758 34.7942363,17.525456 L34.7942363,17.525456 L34.7942363,9.28260958 C34.7942363,7.90988975 35.9169122,6.79708045 37.301803,6.79708045 L37.301803,6.79708045 Z M44.0112922,14.467562 L36.8022877,14.467562 L36.8022877,18.1374309 L44.0212825,18.1374309 L44.0112922,14.467562 Z M22.7159568,4.46999143 L22.7159568,6.66042586 L12.8894923,6.66042586 L12.8894923,8.79540626 L21.9247246,8.79540626 L21.9247246,10.9878212 L12.8894923,10.9878212 L12.8894923,13.1228016 L23.3873054,13.1228016 L23.3873054,15.3152165 L0.181823562,15.3152165 L0.181823562,13.1228016 L10.6796367,13.1228016 L10.6796367,10.9878212 L1.6444043,10.9878212 L1.6444043,8.79540626 L10.6796367,8.79540626 L10.6796367,6.66042586 L0.853172097,6.66042586 L0.853172097,4.46999143 L22.7159568,4.46999143 Z M44.0112922,8.79540626 L36.8022877,8.79540626 L36.8022877,12.4652752 L44.0212825,12.4652752 L44.0112922,8.79540626 Z M13.0972906,0.51889134 C14.2603881,0.0464791258 15.5310484,-0.104112441 16.7737231,0.0831810545 C17.8566722,0.239640657 18.7897668,0.67138994 19.6908923,1.08729521 L19.6908923,1.08729521 L20.1524444,1.29524785 L19.2752956,3.29555416 L19.2313383,3.27772965 L18.76579,3.06383551 C17.9725598,2.69744277 17.2232868,2.35283554 16.4580294,2.23994697 C15.6077295,2.10924332 14.7375814,2.20986842 13.9404724,2.53108066 C13.6447594,2.65387174 13.3570386,2.79052633 13.0693178,2.92718092 C12.4525036,3.24003938 11.8085269,3.49722218 11.1451849,3.69561542 C10.5101317,3.86566628 9.85488604,3.95026615 9.19707532,3.94713909 C8.9313332,3.94713909 8.66359301,3.93525608 8.39385476,3.90950956 C6.66153577,3.74512795 5.06308687,3.11730904 3.44265931,2.43205559 L3.44265931,2.43205559 L4.30582171,0.423827278 C5.81635591,1.0635292 7.18302972,1.60222555 8.60365117,1.73689964 C9.26111688,1.80703441 9.92597006,1.75804485 10.5657472,1.59232304 C11.101921,1.42561715 11.6226635,1.2135849 12.1222368,0.958562628 C12.4459227,0.806064028 12.7676105,0.653565428 13.0972906,0.51889134 Z" id="形状结合"></path>
                </g>
            </g>
            <g id="编组" transform="translate(19.677377, 4.560000)" fill-rule="nonzero" opacity="0.400000006">
                <g id="编组" transform="translate(2.746038, 0.000000)">
                    <path d="M21.7543083,21.755304 L17.9473179,19.5905417 C16.9702084,19.0714207 16.3542514,18.0686168 16.3382549,16.9709194 L16.2219823,6.264072 L21.7543083,9.34041086 L21.7543083,21.755304 Z" id="路径" fill="#A5A7AB"></path>
                    <polygon id="路径" fill="#58585A" points="21.7449315 21.755304 21.7449315 9.22530343 27.1534834 12.4148931 27.1534834 24.9448937"></polygon>
                    <polyline id="路径" fill="#58585A" points="16.2219823 6.264072 16.2219823 0 21.7449315 3.07448229 21.7449315 9.34041086"></polyline>
                    <path d="M32.5601599,11.0484566 L32.5601599,28.019376 L27.1534834,24.9448937 L27.1534834,12.4148931 L21.7543083,9.34041086 L21.7543083,3.07448229 L31.1798915,8.42883429 C32.0260888,9.04233885 32.5361482,10.0103847 32.5601599,11.0484566" id="路径" fill="#000000"></path>
                    <path d="M16.2219823,20.3888674 L16.2219823,24.8297863 L7.73231454e-05,15.6044829 L7.73231454e-05,9.34041086 L14.8417139,17.8806394 C15.762518,18.3354994 16.2219823,19.3658966 16.2219823,20.3870109" id="路径" fill="#000000"></path>
                    <path d="M16.2219823,37.1314286 L16.2219823,37.1314286 L1.50036912,28.5912 C0.564056614,28.0454495 -0.00764851868,27.0472094 0,25.9715777 L0,21.6401966 L16.2219823,30.9806074" id="路径" fill="#A5A7AB"></path>
                    <polygon id="路径" fill="#58585A" points="16.2219823 30.9806074 7.73231454e-05 21.6401966 7.73231454e-05 15.3761246 16.2219823 24.8297863"></polygon>
                </g>
            </g>
        </g>
    </g>
</svg>